<?xml version="1.0" standalone="no"?>
<!DOCTYPE svg PUBLIC "-//W3C//DTD SVG 1.1//EN" "http://www.w3.org/Graphics/SVG/1.1/DTD/svg11.dtd" >
<svg xmlns="http://www.w3.org/2000/svg">
<metadata></metadata>
<defs>
<font id="din-boldregular" horiz-adv-x="1112" >
<font-face units-per-em="2048" ascent="1638" descent="-410" />
<missing-glyph horiz-adv-x="475" />
<glyph horiz-adv-x="2048" />
<glyph horiz-adv-x="2048" />
<glyph unicode="&#xd;" horiz-adv-x="475" />
<glyph unicode=" "  horiz-adv-x="475" />
<glyph unicode="&#x09;" horiz-adv-x="475" />
<glyph unicode="&#xa0;" horiz-adv-x="475" />
<glyph unicode="!" horiz-adv-x="710" d="M229 1458h330l-67 -1001h-197zM242 0v303h305v-303h-305z" />
<glyph unicode="&#x22;" horiz-adv-x="950" d="M139 1026h250v432h-250v-432zM561 1026h248v432h-248v-432z" />
<glyph unicode="#" horiz-adv-x="1415" d="M123 389h141l-61 -389h280l62 389h237l-63 -389h280l62 389h182v250h-141l33 221h182v248h-141l55 362h-279l-57 -362h-238l58 362h-281l-57 -362h-182v-248h143l-33 -221h-182v-250zM584 639l34 221h236l-33 -221h-237z" />
<glyph unicode="$" horiz-adv-x="1267" d="M39 180q96 -98 213 -143t270 -49v-221h207v229q199 25 319.5 138.5t120.5 295.5q0 201 -112 307q-47 45 -113.5 73t-165.5 42l-78 12v357q72 -4 138.5 -29t113.5 -70l181 178q-82 80 -180.5 120t-223.5 48v183h-207v-185q-199 -20 -312.5 -140t-113.5 -298 q0 -180 105 -285q98 -98 282 -122l66 -9v-370q-98 4 -181 32.5t-145 90.5zM371 1038q0 70 46 119t132 62v-342q-88 12 -135 57q-43 41 -43 104zM700 246v352q2 0 9 -2q49 -6 79.5 -16.5t57.5 -34.5q45 -41 45 -123q0 -154 -191 -176z" />
<glyph unicode="%" horiz-adv-x="1736" d="M106 987q0 -133 85 -206.5t212 -73.5t212 73.5t85 206.5v203q0 133 -85 206.5t-212 73.5t-212 -73.5t-85 -206.5v-203zM299 995v187q0 117 104 116q104 0 105 -116v-187q0 -117 -105 -116q-104 0 -104 116zM420 0h209l690 1458h-209zM1036 268q0 -133 85 -206.5 t212 -73.5t212 73.5t85 206.5v203q0 133 -85 207t-212 74t-212 -74t-85 -207v-203zM1229 276v187q0 117 104 117t105 -117v-187q0 -117 -105 -116q-104 0 -104 116z" />
<glyph unicode="&#x26;" horiz-adv-x="1476" d="M123 430q0 -209 122 -325.5t359 -116.5q133 0 213 36.5t156 96.5l8 6l106 -127h338l-262 309q74 84 111 194.5t45 258.5h-252q-6 -166 -74 -256l-245 291q25 16 56.5 39.5t47.5 35.5q72 53 110.5 114t38.5 140q0 152 -101 248t-271 96q-180 0 -284.5 -94t-104.5 -246 q0 -92 41 -163.5t104 -145.5q-117 -76 -189.5 -170t-72.5 -221zM381 434q0 72 36 122t111 101l291 -342q-51 -45 -102 -65.5t-115 -20.5q-94 0 -157.5 57.5t-63.5 147.5zM508 1124q0 53 31.5 86t89.5 33q55 0 88 -34t33 -85q0 -35 -22.5 -65.5t-61.5 -57.5q-10 -8 -29 -20 t-33 -20l-2 4q-49 55 -71.5 90t-22.5 69z" />
<glyph unicode="'" horiz-adv-x="530" d="M139 1026h252v432h-252v-432z" />
<glyph unicode="(" horiz-adv-x="688" d="M164 283q0 -80 10 -144.5t43 -120.5q29 -49 68 -93t102 -107l10 -11l178 179l-10 10q-41 41 -61.5 65.5t-42.5 61.5q-31 55 -31 172v868q0 117 31 172q23 37 44 62.5t60 64.5l10 11l-178 178l-10 -11q-63 -63 -102 -107t-68 -93q-33 -55 -43 -120t-10 -144v-893z" />
<glyph unicode=")" horiz-adv-x="688" d="M111 -12l180 -181l12 11q61 63 100 107t68 93q33 55 43 120t10 145v893q0 80 -10 144t-43 120q-29 49 -67.5 93t-100.5 107l-12 11l-180 -181l18 -18q37 -37 56.5 -59.5t39.5 -57.5q31 -55 31 -172v-868q0 -117 -31 -172q-20 -35 -39.5 -57.5t-56.5 -59.5z" />
<glyph unicode="*" horiz-adv-x="1011" d="M113 942l92 -162l217 135l-10 -256h188l-8 256l215 -135l94 162l-227 119l227 119l-94 163l-215 -137l8 256h-188l10 -256l-217 137l-92 -163l225 -119z" />
<glyph unicode="+" d="M102 442h330v-327h250v327h328v250h-328v328h-250v-328h-330v-250z" />
<glyph unicode="," horiz-adv-x="571" d="M139 291v-629l293 225v404h-293z" />
<glyph unicode="-" horiz-adv-x="872" d="M121 461h631v248h-631v-248z" />
<glyph unicode="." horiz-adv-x="583" d="M139 0h305v303h-305v-303z" />
<glyph unicode="/" horiz-adv-x="825" d="M0 -152h250l584 1762h-250z" />
<glyph unicode="0" d="M113 422q0 -201 129 -317.5t315 -116.5t314 116.5t128 317.5v614q0 201 -128 317.5t-314 116.5t-315 -116.5t-129 -317.5v-614zM379 424v608q0 90 49 144.5t129 54.5t128 -54.5t48 -144.5v-608q0 -90 -48 -143.5t-128 -53.5t-129 53.5t-49 143.5z" />
<glyph unicode="1" d="M211 913l297 258v-1171h266v1458h-266l-297 -258v-287z" />
<glyph unicode="2" d="M121 0h887v240h-564l408 473q86 100 121 167.5t35 166.5q0 195 -123 309t-320 114q-193 0 -318.5 -115.5t-125.5 -310.5h266q0 98 51 142.5t127 44.5q84 0 130 -49t46 -133q0 -49 -17 -88t-58 -89l-545 -632v-240z" />
<glyph unicode="3" d="M86 418q2 -111 40 -193t103.5 -135t147.5 -77.5t174 -24.5q199 0 331 112.5t132 321.5q0 123 -51.5 205t-137.5 127q78 41 123 114.5t45 184.5q0 90 -32.5 167.5t-92 133t-141.5 86t-178 30.5q-188 0 -315.5 -112.5t-131.5 -302.5h267q4 82 54 129t126 47t127 -49 t51 -138q0 -82 -46 -132t-138 -50h-39v-231h39q96 0 150.5 -54.5t54.5 -146.5q0 -96 -54.5 -149.5t-142.5 -53.5q-84 0 -140.5 48.5t-58.5 142.5h-266z" />
<glyph unicode="4" d="M63 207h596v-207h256v207h134v252h-134v272h-256v-272h-305l500 999h-291l-500 -999v-252z" />
<glyph unicode="5" d="M117 408q8 -94 32.5 -168t86.5 -136q51 -51 135 -83.5t190 -32.5t187 32.5t135 85.5q76 76 102.5 164.5t26.5 221.5q0 123 -27 217t-104 172q-98 98 -273 98q-70 0 -128 -21.5t-91 -52.5v314h590v239h-832v-823h244q16 51 59.5 85t116.5 34q94 0 136 -65.5t42 -196.5 q0 -76 -12 -130.5t-45 -87.5q-47 -47 -127 -47t-124 46t-54 135h-266z" />
<glyph unicode="6" d="M98 438q0 -211 128 -330.5t327 -119.5t327 121.5t128 332.5q0 98 -31 179t-85 137.5t-124 86t-143 29.5q-63 0 -109 -18l303 602h-291l-307 -631q-61 -125 -92 -212t-31 -177zM365 440q0 100 52 156.5t136 56.5t136 -58.5t52 -154.5q0 -98 -52 -155.5t-136 -57.5 t-136 57.5t-52 155.5z" />
<glyph unicode="7" d="M102 989h254v230h385l-473 -1219h289l473 1219v239h-928v-469z" />
<glyph unicode="8" d="M90 424q0 -205 133 -320.5t334 -115.5q203 0 335 115.5t132 320.5q0 119 -53 197.5t-131 130.5q68 47 116 122.5t48 180.5q0 94 -35 172t-96.5 132t-142.5 82.5t-173 28.5t-173 -28.5t-143.5 -82.5t-97 -132t-34.5 -172q0 -104 48 -180t115 -123q-78 -51 -130 -130 t-52 -198zM356 428q0 84 58.5 143.5t142.5 59.5t142.5 -59.5t58.5 -143.5t-58.5 -142.5t-142.5 -58.5t-142.5 58.5t-58.5 142.5zM375 1047q0 78 52 131t130 53t129 -53t51 -131q0 -80 -51 -132.5t-129 -52.5t-130 52.5t-52 132.5z" />
<glyph unicode="9" d="M104 1016q0 -98 32 -179t86 -137.5t124 -86t143 -29.5q63 0 109 18l-303 -602h289l309 631q59 123 90 211t31 178q0 211 -128 330.5t-327 119.5t-327 -121.5t-128 -332.5zM371 1018q0 100 52 156.5t136 56.5t136.5 -56.5t52.5 -156.5q0 -98 -52.5 -155.5t-136.5 -57.5 t-136 58.5t-52 154.5z" />
<glyph unicode=":" horiz-adv-x="632" d="M190 0h304v303h-304v-303zM190 555h304v303h-304v-303z" />
<glyph unicode=";" horiz-adv-x="632" d="M190 555h304v303h-304v-303zM197 291v-629l290 225v404h-290z" />
<glyph unicode="&#x3c;" horiz-adv-x="716" d="M70 563l510 508v-317l-193 -191l193 -190v-318z" />
<glyph unicode="=" d="M102 238h908v249h-908v-249zM102 682h908v250h-908v-250z" />
<glyph unicode="&#x3e;" horiz-adv-x="716" d="M137 55v318l195 190l-195 191v317l510 -508z" />
<glyph unicode="?" horiz-adv-x="1071" d="M135 1061h266q0 74 43 122t121 48q76 0 121 -47t45 -121q0 -33 -16.5 -67.5t-42.5 -69.5l-152 -195q-43 -55 -60.5 -102t-17.5 -111v-61h267v43q0 25 10 54.5t26 49.5l152 201q49 63 74.5 123.5t25.5 132.5q0 94 -33.5 171t-94 130t-138.5 80.5t-166 27.5 q-90 0 -168 -28.5t-137 -81.5t-92 -130t-33 -169zM434 0h283v272h-283v-272z" />
<glyph unicode="@" horiz-adv-x="1552" d="M117 342q0 -133 35.5 -212t126.5 -161l184 185q-51 45 -70.5 86t-19.5 116v592q0 70 14 118t57 91q41 41 90.5 56.5t114.5 15.5h254q133 0 205 -72q39 -39 55.5 -90t16.5 -119v-92q-90 100 -242 100q-78 0 -145.5 -27.5t-112.5 -76.5q-57 -63 -75.5 -146t-18.5 -233 q0 -152 18.5 -235.5t77.5 -147.5q96 -102 258 -102q82 0 138.5 25.5t107.5 80.5v-94l248 -6v960q0 133 -29 226.5t-96 160.5q-68 68 -162 96.5t-223 28.5h-295q-131 0 -224.5 -28.5t-160.5 -96.5q-68 -68 -97.5 -163t-29.5 -224v-612zM842 473q0 131 38 196.5t130 65.5 q94 0 132 -66.5t38 -195.5t-38 -196.5t-132 -67.5q-92 0 -130 66.5t-38 197.5z" />
<glyph unicode="A" horiz-adv-x="1306" d="M10 0h297l88 258h518l86 -258h297l-532 1458h-223zM475 498l184 530l179 -530h-363z" />
<glyph unicode="B" horiz-adv-x="1347" d="M170 0h610q201 0 324 110.5t123 309.5q0 131 -59.5 210t-141.5 118q68 33 124 111.5t56 189.5q0 188 -118.5 298.5t-331.5 110.5h-586v-1458zM455 254v358h297q92 0 141 -50t49 -128t-49 -129t-141 -51h-297zM455 868v336h278q90 0 139.5 -46t49.5 -122t-49.5 -122 t-139.5 -46h-278z" />
<glyph unicode="C" horiz-adv-x="1269" d="M121 729q0 -240 24.5 -362.5t118.5 -219.5q159 -159 390 -159h3q209 0 354.5 119t182.5 342h-289q-23 -94 -83 -150.5t-163 -56.5q-117 0 -182 75q-23 25 -36 53.5t-20 71.5t-11 111t-4 176q0 109 4 176.5t11 110.5t20.5 71.5t35.5 53.5q66 76 182 76q102 0 163 -56.5 t83 -150.5h289q-37 223 -181.5 341.5t-355.5 118.5q-233 0 -393 -159q-94 -94 -118.5 -218t-24.5 -364z" />
<glyph unicode="D" horiz-adv-x="1349" d="M170 0h526q117 0 216.5 35t168.5 104q96 96 122 223t26 373q0 125 -4 204t-18.5 147.5t-44 126t-81.5 106.5q-70 70 -169 104.5t-216 34.5h-526v-1458zM455 254v950h215q139 0 213 -90q39 -47 50 -126t11 -253q0 -178 -11 -261t-50 -130q-74 -90 -213 -90h-215z" />
<glyph unicode="E" horiz-adv-x="1239" d="M170 0h960v254h-675v354h575v254h-575v342h675v254h-960v-1458z" />
<glyph unicode="F" horiz-adv-x="1208" d="M170 0h285v592h575v254h-575v358h675v254h-960v-1458z" />
<glyph unicode="G" horiz-adv-x="1327" d="M121 729q0 -240 24.5 -362.5t118.5 -219.5q159 -159 390 -159h3q123 0 225.5 40t186.5 126q76 80 107.5 182t31.5 262v213h-551v-238h269v-55q0 -121 -66 -194q-76 -82 -203 -82q-117 0 -182 75q-23 25 -35 52.5t-20 72.5t-11 110.5t-3 176.5t3 177.5t11 109.5t21.5 71.5 t33.5 51.5q68 78 182 78q211 0 263 -213h286q-14 94 -55 179t-108.5 149.5t-165 101t-220.5 36.5q-233 0 -393 -159q-94 -94 -118.5 -218t-24.5 -364z" />
<glyph unicode="H" horiz-adv-x="1402" d="M170 0h285v610h493v-610h285v1458h-285v-596h-493v596h-285v-1458z" />
<glyph unicode="I" horiz-adv-x="624" d="M170 0h285v1458h-285v-1458z" />
<glyph unicode="J" horiz-adv-x="1046" d="M6 137q82 -80 169 -114.5t206 -34.5q102 0 195.5 31.5t165 95t112.5 155.5t41 209v979h-285v-966q0 -123 -61.5 -186.5t-167.5 -63.5q-63 0 -104 20.5t-82 61.5z" />
<glyph unicode="K" horiz-adv-x="1361" d="M170 0h285v438l188 226l375 -664h332l-519 879l484 579h-346l-514 -635v635h-285v-1458z" />
<glyph unicode="L" horiz-adv-x="1177" d="M170 0h946v254h-661v1204h-285v-1458z" />
<glyph unicode="M" horiz-adv-x="1660" d="M170 0h285v850l280 -553h193l278 553v-850h285v1458h-281l-379 -788l-380 788h-281v-1458z" />
<glyph unicode="N" horiz-adv-x="1456" d="M170 0h285v895l577 -895h254v1458h-285v-893l-577 893h-254v-1458z" />
<glyph unicode="O" horiz-adv-x="1318" d="M121 729q0 -240 24.5 -362.5t118.5 -219.5q80 -80 177.5 -119.5t217.5 -39.5q121 0 217.5 40t176.5 119q98 98 121.5 220t23.5 362q0 242 -23.5 363.5t-121.5 218.5q-80 80 -176.5 119.5t-217.5 39.5t-218 -39.5t-177 -119.5q-94 -94 -118.5 -218t-24.5 -364zM406 729 q0 111 3 177.5t11 109.5t21.5 71.5t33.5 51.5q31 37 79 57.5t105 20.5q115 0 183 -78q23 -25 36 -53.5t21 -70.5t11 -109.5t3 -176.5q0 -106 -3 -175t-11 -111t-21.5 -70.5t-35.5 -53.5q-67 -77 -180 -77h-3q-57 0 -105 20.5t-79 56.5q-23 25 -35 52.5t-20 71.5t-11 109.5 t-3 176.5z" />
<glyph unicode="P" horiz-adv-x="1286" d="M170 0h285v549h280q111 0 201 36t152.5 98t95.5 144.5t33 176.5t-33 176t-95.5 145.5t-152.5 98t-201 34.5h-565v-1458zM455 805v399h266q96 0 153.5 -55t57.5 -145t-57.5 -144.5t-153.5 -54.5h-266z" />
<glyph unicode="Q" horiz-adv-x="1316" d="M121 729q0 -240 24.5 -362.5t118.5 -219.5q80 -80 177.5 -119.5t217.5 -39.5q172 0 295 80l129 -129l150 149l-125 125q59 88 74.5 197.5t15.5 318.5q0 242 -23.5 363.5t-121.5 218.5q-80 80 -176.5 119.5t-217.5 39.5t-218 -39.5t-177 -119.5q-94 -94 -118.5 -218 t-24.5 -364zM406 729q0 111 3 177.5t11 109.5t21.5 71.5t33.5 51.5q31 37 79 57.5t105 20.5q115 0 183 -78q23 -25 36 -53.5t21 -70.5t11 -109.5t3 -176.5q0 -119 -5 -184.5t-21 -110.5l-109 109l-151 -150l127 -125q-38 -26 -91 -26h-4q-57 0 -105 20.5t-79 56.5 q-23 25 -35 52.5t-20 71.5t-11 109.5t-3 176.5z" />
<glyph unicode="R" horiz-adv-x="1339" d="M170 0h285v582h204l285 -582h330l-326 629q115 41 190.5 139t75.5 244q0 92 -31.5 173t-93 142.5t-150.5 96t-198 34.5h-571v-1458zM455 819v385h268q92 0 149.5 -53t57.5 -139t-57.5 -139.5t-149.5 -53.5h-268z" />
<glyph unicode="S" horiz-adv-x="1210" d="M39 180q104 -104 232 -148t300 -44q238 0 389.5 117.5t151.5 324.5q0 203 -113 309q-47 45 -113.5 72t-164.5 41l-84 12l-88 13q-88 12 -133 58t-45 103q0 80 58 132.5t167 52.5q88 0 163 -20.5t136 -80.5l180 178q-92 90 -204.5 130t-266.5 40q-233 0 -370.5 -121.5 t-137.5 -320.5q0 -182 105 -287q96 -94 282 -120l95 -13l81 -12q96 -14 135.5 -56t39.5 -118q0 -180 -259 -180q-109 0 -197.5 28.5t-154.5 94.5z" />
<glyph unicode="T" horiz-adv-x="1169" d="M61 1204h381v-1204h285v1204h381v254h-1047v-254z" />
<glyph unicode="U" horiz-adv-x="1368" d="M147 500q0 -115 41 -209t115 -163t172 -104.5t209 -35.5t209 35.5t172 104.5t115 163t41 209v958h-283v-948q0 -125 -68.5 -196.5t-185.5 -71.5q-115 0 -183.5 71.5t-68.5 196.5v948h-285v-958z" />
<glyph unicode="V" horiz-adv-x="1189" d="M6 1458l481 -1458h213l484 1458h-297l-293 -950l-293 950h-295z" />
<glyph unicode="W" horiz-adv-x="1816" d="M12 1458l389 -1458h238l268 885l269 -885h237l391 1458h-297l-227 -919l-266 919h-213l-266 -919l-226 919h-297z" />
<glyph unicode="X" horiz-adv-x="1234" d="M10 0h326l280 508l283 -508h326l-455 748l424 710h-322l-256 -471l-254 471h-323l424 -710z" />
<glyph unicode="Y" horiz-adv-x="1171" d="M6 1458l438 -860v-598h283v598l438 860h-309l-268 -588l-273 588h-309z" />
<glyph unicode="Z" horiz-adv-x="1122" d="M82 0h958v254h-624l624 979v225h-931v-254h596l-623 -975v-229z" />
<glyph unicode="[" horiz-adv-x="774" d="M164 -152h526v240h-260v1282h260v240h-526v-1762z" />
<glyph unicode="\" horiz-adv-x="825" d="M0 1583l575 -1735h250l-575 1735h-250z" />
<glyph unicode="]" horiz-adv-x="774" d="M86 86v-238h526v1762h-526v-238h260v-1286h-260z" />
<glyph unicode="^" horiz-adv-x="1232" d="M129 797h279l208 385l209 -385h279l-365 676h-245z" />
<glyph unicode="_" horiz-adv-x="1232" d="M0 -186v-179h1233v179h-1233z" />
<glyph unicode="`" horiz-adv-x="1024" d="M213 1585l233 -348h179l-131 348h-281z" />
<glyph unicode="a" horiz-adv-x="1093" d="M74 324q0 -147 88 -240q94 -94 272 -94q90 0 148.5 23.5t113.5 78.5v-92h260v702q0 377 -454 377q-137 0 -223 -31.5t-162 -115.5l170 -166q43 49 87 68.5t118 19.5q106 0 152 -40t46 -128v-53h-252q-178 0 -271 -87t-93 -222zM330 330q0 121 149 121h211v-58 q0 -98 -39 -135q-33 -31 -69.5 -41t-98.5 -10q-76 0 -114.5 32.5t-38.5 90.5z" />
<glyph unicode="b" horiz-adv-x="1146" d="M150 0h258v100q55 -61 117.5 -86.5t148.5 -25.5q78 0 146.5 25.5t113.5 70.5q72 72 94 205q10 53 12 110.5t2 135.5q0 164 -18 271t-90 177q-45 45 -113.5 70.5t-146.5 25.5q-82 0 -144.5 -24.5t-113.5 -81.5v485h-266v-1458zM416 535q0 74 6 127t24.5 93t55.5 62.5 t94 22.5t94 -22.5t55.5 -62.5t24.5 -93t6 -127t-6 -127.5t-24.5 -94.5t-55.5 -63.5t-94 -22.5t-94 22.5t-55.5 63.5t-24.5 94.5t-6 127.5z" />
<glyph unicode="c" horiz-adv-x="983" d="M96 535q0 -154 42 -261.5t111.5 -170t152.5 -89t171 -26.5q214 0 353 145l-181 178q-43 -45 -81.5 -64.5t-90.5 -19.5q-94 0 -151 70q-59 74 -60 238q0 162 60 235q57 70 151 70q51 0 90 -19.5t82 -64.5l181 180q-70 74 -156 108.5t-197 34.5q-88 0 -171 -26.5 t-152.5 -88t-111.5 -169t-42 -260.5z" />
<glyph unicode="d" horiz-adv-x="1148" d="M104 535q0 -78 3.5 -135.5t11.5 -110.5q25 -133 94 -205q45 -45 114.5 -70.5t147.5 -25.5q86 0 147.5 25.5t116.5 86.5v-100h260v1458h-266v-485q-51 57 -113.5 81.5t-146.5 24.5q-78 0 -146.5 -25.5t-113.5 -70.5q-70 -70 -89.5 -177.5t-19.5 -270.5zM371 535 q0 74 6 127t24.5 93t55.5 62.5t94 22.5q111 0 151 -88q18 -39 24.5 -91t6.5 -126q0 -72 -6 -126.5t-25 -93.5q-41 -88 -151 -88q-57 0 -94 22.5t-55.5 63.5t-24.5 94.5t-6 127.5z" />
<glyph unicode="e" horiz-adv-x="1122" d="M96 535q0 -156 40 -263.5t108.5 -169t155.5 -88t190 -26.5q137 0 227 40t178 128l-161 157q-53 -53 -105.5 -76.5t-136.5 -23.5q-109 0 -171.5 65.5t-62.5 172.5h668v118q0 225 -124 367.5t-341 142.5q-211 0 -338 -143t-127 -401zM358 633q2 35 7.5 60.5t17.5 54.5 q23 51 69 80.5t109 29.5q66 0 111 -29.5t67 -80.5q12 -29 17.5 -54.5t7.5 -60.5h-406z" />
<glyph unicode="f" horiz-adv-x="700" d="M72 834h110v-834h267v834h196v202h-196v117q0 96 92 96h104v226h-151q-152 0 -232 -90.5t-80 -215.5v-133h-110v-202z" />
<glyph unicode="g" horiz-adv-x="1136" d="M104 563q0 -164 19.5 -259t89.5 -165q45 -45 110.5 -69.5t143.5 -24.5q80 0 141.5 24.5t112.5 82.5v-109q0 -92 -52.5 -156.5t-162.5 -64.5q-68 0 -116 19.5t-93 62.5l-166 -168q80 -78 170 -108.5t217 -30.5q213 0 341 123.5t128 318.5v1028h-258v-100 q-55 61 -115.5 86.5t-144.5 25.5q-78 0 -144.5 -24.5t-111.5 -69.5q-70 -70 -89.5 -164t-19.5 -258zM371 563q0 63 6 109.5t23.5 84.5t52 60.5t92.5 22.5q57 0 92 -22.5t53.5 -60.5t24.5 -85.5t6 -108.5t-6 -108t-23.5 -86t-53.5 -61.5t-93 -22.5q-55 0 -91 22.5t-53.5 61.5 t-23.5 85t-6 109z" />
<glyph unicode="h" horiz-adv-x="1165" d="M150 0h266v651q0 96 50 142.5t122 46.5t123 -45t51 -144v-651h266v690q0 174 -93 281.5t-263 107.5q-147 0 -256 -110v489h-266v-1458z" />
<glyph unicode="i" horiz-adv-x="563" d="M145 1249h273v217h-273v-217zM150 0h266v1067h-266v-1067z" />
<glyph unicode="j" horiz-adv-x="563" d="M-47 -174v-225h151q154 0 233 90t79 215v1161h-266v-1145q0 -96 -95 -96h-102zM145 1249h273v217h-273v-217z" />
<glyph unicode="k" horiz-adv-x="1144" d="M150 0h266v317l112 127l263 -444h329l-409 637l381 430h-322l-354 -436v827h-266v-1458z" />
<glyph unicode="l" horiz-adv-x="665" d="M139 305q0 -125 79 -215t233 -90h151v225h-102q-94 0 -94 97v1136h-267v-1153z" />
<glyph unicode="m" horiz-adv-x="1794" d="M150 0h266v645q0 100 52 147.5t126 47.5q72 0 124 -47.5t52 -147.5v-645h266v651q0 96 53.5 142.5t124.5 46.5q72 0 124.5 -47.5t52.5 -147.5v-645h266v682q0 92 -27.5 167t-89.5 136q-45 45 -113.5 69.5t-148.5 24.5q-100 0 -176 -32.5t-144 -102.5q-98 135 -282 135 q-74 0 -144.5 -28.5t-121.5 -81.5v98h-260v-1067z" />
<glyph unicode="n" horiz-adv-x="1173" d="M150 0h266v645q0 100 52 147.5t126 47.5q72 0 124 -47.5t52 -147.5v-645h266v682q0 94 -23.5 168t-84.5 135q-94 94 -252 94q-76 0 -145.5 -28.5t-120.5 -81.5v98h-260v-1067z" />
<glyph unicode="o" d="M104 535q0 -154 26 -249.5t95 -166.5q55 -57 137 -94t193 -37t193.5 36.5t138.5 94.5q70 72 95.5 167t25.5 249q0 152 -26 247t-95 166q-55 57 -138 94t-194 37t-192.5 -35.5t-137.5 -95.5q-70 -72 -95.5 -167t-25.5 -246zM371 535q0 98 12 159.5t49 98.5q47 47 123 47 q78 0 125 -47q39 -37 50 -98.5t11 -159.5t-11 -160t-50 -101q-47 -47 -125 -47q-76 0 -123 47q-37 39 -49 100.5t-12 160.5z" />
<glyph unicode="p" horiz-adv-x="1146" d="M150 -391h266v485q51 -57 113.5 -81.5t144.5 -24.5q78 0 146.5 25.5t113.5 70.5q72 72 94 205q10 53 12 110.5t2 135.5q0 164 -18 271t-90 177q-45 45 -113.5 70.5t-146.5 25.5q-86 0 -148.5 -25.5t-117.5 -86.5v100h-258v-1458zM416 535q0 74 6 127t24.5 93t55.5 62.5 t94 22.5t94 -22.5t55.5 -62.5t24.5 -93t6 -127t-6 -127.5t-24.5 -94.5t-55.5 -63.5t-94 -22.5t-94 22.5t-55.5 63.5t-24.5 94.5t-6 127.5z" />
<glyph unicode="q" horiz-adv-x="1148" d="M104 535q0 -78 3.5 -135.5t11.5 -110.5q25 -133 94 -205q45 -45 113.5 -70.5t146.5 -25.5q84 0 146.5 24.5t113.5 81.5v-485h266v1458h-260v-100q-55 61 -116.5 86.5t-147.5 25.5q-78 0 -147.5 -25.5t-114.5 -70.5q-70 -70 -89.5 -177.5t-19.5 -270.5zM371 535 q0 74 6 127t24.5 93t55.5 62.5t94 22.5q111 0 151 -88q18 -39 24.5 -91t6.5 -126q0 -72 -6 -126.5t-25 -93.5q-41 -88 -151 -88q-57 0 -94 22.5t-55.5 63.5t-24.5 94.5t-6 127.5z" />
<glyph unicode="r" horiz-adv-x="931" d="M150 0h266v643q0 94 52 145.5t120 51.5q45 0 76.5 -14.5t64.5 -49.5l201 203q-53 55 -112.5 77.5t-139.5 22.5q-82 0 -154.5 -32.5t-113.5 -81.5v102h-260v-1067z" />
<glyph unicode="s" horiz-adv-x="1026" d="M45 141q92 -92 199.5 -122.5t255.5 -30.5q199 0 325.5 89t126.5 259q0 137 -79.5 218t-237.5 95l-84 8l-84 9q-63 6 -87 31.5t-24 60.5q0 43 38 72.5t114 29.5q78 0 141.5 -16.5t106.5 -55.5l164 166q-72 68 -173.5 96.5t-234.5 28.5q-172 0 -292 -90t-120 -250 q0 -141 80 -212.5t232 -86.5l86 -8l82 -8q59 -6 85.5 -30.5t26.5 -67.5q0 -55 -55 -83t-133 -28q-80 0 -152.5 20.5t-132.5 79.5z" />
<glyph unicode="t" horiz-adv-x="720" d="M61 834h113v-529q0 -125 79 -215t230 -90h146v225h-97q-92 0 -92 97v512h189v202h-189v316h-266v-316h-113v-202z" />
<glyph unicode="u" horiz-adv-x="1173" d="M137 385q0 -94 23.5 -168t85.5 -135q94 -94 252 -94q76 0 145.5 28.5t120.5 81.5v-98h260v1067h-266v-645q0 -100 -52.5 -147.5t-125.5 -47.5q-72 0 -124.5 47.5t-52.5 147.5v645h-266v-682z" />
<glyph unicode="v" horiz-adv-x="1009" d="M8 1067l393 -1067h209l391 1067h-280l-215 -659l-217 659h-281z" />
<glyph unicode="w" horiz-adv-x="1554" d="M8 1067l328 -1067h219l223 670l223 -670h220l325 1067h-280l-172 -659l-220 659h-194l-217 -659l-172 659h-283z" />
<glyph unicode="x" horiz-adv-x="1079" d="M25 0h319l195 319l196 -319h320l-369 545l354 522h-319l-182 -305l-181 305h-319l354 -522z" />
<glyph unicode="y" horiz-adv-x="1011" d="M8 1067l365 -991l-45 -131q-20 -57 -48 -77t-85 -20h-62v-239h105q70 0 128 18.5t101 63.5q45 45 80 137l457 1239h-281l-213 -659l-221 659h-281z" />
<glyph unicode="z" horiz-adv-x="978" d="M76 0h813v240h-479l479 624v203h-787v-240h447l-473 -624v-203z" />
<glyph unicode="{" horiz-adv-x="935" d="M88 610h94q68 0 107 -39q35 -35 35 -122v-297q0 -141 86 -228q76 -76 229 -76h209v240h-109q-47 0 -73.5 6t-42.5 23q-33 37 -33 131v276q0 51 -13.5 88t-35 59.5t-44 35t-48.5 22.5q27 10 49 22.5t43.5 35t35 59.5t13.5 88v276q0 96 33 131q16 16 42.5 22.5t73.5 6.5 h109v240h-209q-154 0 -229 -76q-86 -86 -86 -227v-297q0 -88 -35 -123q-39 -39 -107 -39h-94v-238z" />
<glyph unicode="|" horiz-adv-x="716" d="M225 -152h267v1762h-267v-1762z" />
<glyph unicode="}" horiz-adv-x="935" d="M88 88v-240h209q154 0 229 76q86 86 86 228v297q0 88 35 122q39 39 107 39h94v238h-94q-68 0 -107 39q-35 35 -35 123v297q0 141 -86 227q-76 76 -229 76h-209v-240h109q47 0 73.5 -6t42.5 -23q33 -35 33 -131v-276q0 -51 13.5 -88t35 -59.5t44 -35t48.5 -22.5 q-27 -10 -49 -22.5t-43.5 -35t-35 -59.5t-13.5 -88v-276q0 -94 -33 -131q-16 -16 -42.5 -22.5t-73.5 -6.5h-109z" />
<glyph unicode="~" horiz-adv-x="1241" d="M76 600l168 -168q53 53 91 69.5t85 16.5q41 0 81 -12t87 -37q70 -37 124 -53.5t115 -16.5q92 0 167 40t171 136l-170 168q-53 -53 -92 -69.5t-86 -16.5q-41 0 -79 12.5t-87 37.5q-70 37 -124 53t-115 16q-92 0 -166 -40t-170 -136z" />
<glyph unicode="&#xa1;" horiz-adv-x="710" d="M154 -391h329l-65 1001h-199zM178 795h281v272h-281v-272z" />
<glyph unicode="&#xa2;" horiz-adv-x="1021" d="M96 750q0 -227 104.5 -363.5t274.5 -171.5v-215h207v215q160 29 279 154l-177 172q-33 -35 -61.5 -54.5t-69.5 -29.5v585q41 -10 70 -29.5t61 -54.5l177 172q-119 125 -279 154v174h-207v-174q-170 -35 -274.5 -171t-104.5 -363zM362 750q0 156 64 235q35 41 78 53v-577 q-47 12 -78 53q-63 80 -64 236z" />
<glyph unicode="&#xa3;" horiz-adv-x="1185" d="M82 608h125v-608h887v254h-605v354h232v205h-232v154q0 123 62.5 186.5t169.5 63.5q66 0 105.5 -20.5t80.5 -61.5l187 186q-80 82 -167 115.5t-206 33.5q-102 0 -195.5 -31.5t-165 -95t-112.5 -155.5t-41 -209v-166h-125v-205z" />
<glyph unicode="&#xa4;" horiz-adv-x="1370" d="M119 197l176 -177l151 150q111 -66 238 -66q129 0 240 66l151 -150l174 177l-149 149q66 111 65 240q0 129 -65 239l149 150l-174 176l-151 -150q-111 66 -240 66q-127 0 -238 -66l-151 150l-176 -176l151 -150q-68 -115 -67 -239q0 -125 67 -240zM444 586 q0 100 70 169.5t170 69.5t171 -69.5t71 -169.5t-71 -170t-171 -70t-170 69.5t-70 170.5z" />
<glyph unicode="&#xa5;" horiz-adv-x="1169" d="M6 1458l281 -553h-154v-205h258l53 -102v-104h-311v-205h311v-289h283v289h309v205h-309v104l53 102h256v205h-151l278 553h-307l-270 -590l-271 590h-309z" />
<glyph unicode="&#xa6;" horiz-adv-x="722" d="M225 -152h267v717h-267v-717zM225 893h267v717h-267v-717z" />
<glyph unicode="&#xa7;" horiz-adv-x="1087" d="M125 543q0 -158 72.5 -246t226.5 -139l127 -43q78 -25 110.5 -65t32.5 -87q0 -59 -40 -95t-109 -36q-68 0 -108 36t-44 93h-256q2 -94 37 -163.5t92.5 -113.5t129 -65.5t149.5 -21.5t150.5 23.5t130 70.5t91 117.5t33.5 162.5q0 111 -45 179.5t-121 105.5 q70 39 127.5 121t57.5 184q0 158 -73 247t-226 138l-127 41q-137 45 -137 135q0 53 37.5 87t105.5 34q63 0 102 -29.5t41 -95.5h250q-2 156 -101.5 254t-291.5 98q-188 0 -290.5 -102t-102.5 -252q0 -104 42 -166.5t113 -101.5q-72 -39 -129 -120t-57 -185zM381 551 q0 49 12.5 82t36.5 57q43 43 117 43q68 0 115 -43q25 -25 38 -57.5t13 -81.5q0 -51 -14.5 -83t-36.5 -54q-43 -43 -115 -43q-74 0 -117 43q-23 23 -36 54.5t-13 82.5z" />
<glyph unicode="&#xa8;" horiz-adv-x="1024" d="M172 1241h227v256h-227v-256zM625 1241h227v256h-227v-256z" />
<glyph unicode="&#xa9;" horiz-adv-x="1728" d="M123 729q0 -152 57.5 -287t159.5 -237.5t237.5 -159.5t286.5 -57q152 0 287 57t237.5 159.5t160 237.5t57.5 287t-57.5 287t-160 237.5t-237.5 159.5t-287 57t-287 -57t-237 -159.5t-159.5 -237.5t-57.5 -287zM299 729q0 121 43 227.5t121 184.5t181.5 121t219.5 43 q117 0 220.5 -43t180 -121t119.5 -184.5t43 -227.5t-43 -227.5t-119.5 -184t-180 -120.5t-220.5 -43t-221 43t-181 120.5t-120 184t-43 227.5zM512 729q0 -190 103.5 -295.5t263.5 -105.5q82 0 146.5 26.5t123.5 79.5l-115 115q-43 -37 -76.5 -51.5t-78.5 -14.5 q-94 0 -143.5 65.5t-49.5 180.5t49 180.5t144 65.5q45 0 78.5 -14.5t76.5 -51.5l115 115q-63 55 -125.5 82t-144.5 27q-160 0 -263.5 -106.5t-103.5 -297.5z" />
<glyph unicode="&#xaa;" horiz-adv-x="929" d="M98 864q0 -117 72 -188q76 -78 215 -78q72 0 117 18.5t90 63.5v-74h211v561q0 301 -363 301q-109 0 -178 -25.5t-131 -92.5l137 -133q35 39 69 54t93 15q84 0 121 -31.5t37 -101.5v-41h-199q-141 0 -216 -69.5t-75 -178.5zM307 870q0 96 115 97h166v-47q0 -76 -31 -105 q-25 -23 -55.5 -31t-77.5 -8q-117 0 -117 94z" />
<glyph unicode="&#xab;" horiz-adv-x="1286" d="M70 563l510 -508v318l-193 190l193 191v317zM639 563l512 -508v318l-197 190l197 191v317z" />
<glyph unicode="&#xac;" d="M94 489h676v-296h248v544h-924v-248z" />
<glyph unicode="&#xad;" d="M102 461h908v248h-908v-248z" />
<glyph unicode="&#xae;" horiz-adv-x="1728" d="M123 729q0 -152 57.5 -287t159.5 -237.5t237.5 -159.5t286.5 -57q152 0 287 57t237.5 159.5t160 237.5t57.5 287t-57.5 287t-160 237.5t-237.5 159.5t-287 57t-287 -57t-237 -159.5t-159.5 -237.5t-57.5 -287zM299 729q0 121 43 227.5t120 184.5t180 121t222 43 t222.5 -43t180 -121t120 -184.5t43.5 -227.5t-43.5 -227.5t-120 -184t-180 -120.5t-222.5 -43t-222 43t-180 120.5t-120 184t-43 227.5zM594 336h176v305h84l143 -305h201l-166 332q63 25 104.5 79t41.5 130q0 102 -73 174.5t-190 72.5h-321v-788zM770 774v205h123 q47 0 77.5 -29.5t30.5 -72.5t-30.5 -73t-77.5 -30h-123z" />
<glyph unicode="&#xaf;" horiz-adv-x="1024" d="M188 1290h648v178h-648v-178z" />
<glyph unicode="&#xb0;" horiz-adv-x="978" d="M113 1110q0 -78 28.5 -146.5t80.5 -120.5t121 -81t146 -29q78 0 147 29t121 81t80.5 120.5t28.5 146.5t-28.5 146.5t-80.5 121t-121 82t-147 29.5t-146.5 -29.5t-120.5 -82t-80.5 -121t-28.5 -146.5zM328 1110q0 70 46 117t113 47q68 0 116 -47t48 -117t-47 -117 t-115 -47t-114.5 47t-46.5 117z" />
<glyph unicode="&#xb1;" d="M102 0h908v250h-908v-250zM102 698h330v-329h250v329h328v248h-328v330h-250v-330h-330v-248z" />
<glyph unicode="&#xb2;" horiz-adv-x="733" d="M88 584h557v174h-321l215 233q57 63 81.5 106.5t24.5 106.5q0 121 -78 191.5t-200 70.5q-121 0 -200 -70.5t-79 -193.5h193q0 49 24.5 69.5t61.5 20.5q86 0 86 -88q0 -27 -10.5 -48t-34.5 -48l-320 -350v-174z" />
<glyph unicode="&#xb3;" horiz-adv-x="753" d="M88 846q0 -135 84 -203t205 -68q123 0 206 70t83 199q0 72 -29 118t-74 74q41 25 66.5 66t25.5 106q0 113 -78.5 185.5t-199.5 72.5q-119 0 -199 -70.5t-80 -189.5h193q0 41 24.5 63.5t61.5 22.5t61.5 -23.5t24.5 -66.5q0 -35 -22.5 -61.5t-67.5 -26.5h-27v-166h27 q45 0 72.5 -27.5t27.5 -70.5q0 -47 -25.5 -74.5t-70.5 -27.5q-41 0 -68.5 25.5t-27.5 72.5h-193z" />
<glyph unicode="&#xb4;" horiz-adv-x="1024" d="M399 1237h179l233 348h-281z" />
<glyph unicode="&#xb5;" horiz-adv-x="1179" d="M143 -391h267v407q39 -29 94 -28q76 0 145.5 28.5t120.5 81.5v-98h260v1067h-266v-645q0 -100 -52.5 -147.5t-125.5 -47.5q-72 0 -124 47.5t-52 147.5v645h-267v-1458z" />
<glyph unicode="&#xb6;" horiz-adv-x="1368" d="M72 1042q0 -84 31.5 -158.5t86 -132t125 -89t146.5 -31.5v-1022h266v1595h205v-1595h266v1849h-653q-215 0 -344 -109.5t-129 -306.5z" />
<glyph unicode="&#xb7;" horiz-adv-x="583" d="M139 434h305v303h-305v-303z" />
<glyph unicode="&#xb8;" horiz-adv-x="1024" d="M328 -422h247l91 299h-197z" />
<glyph unicode="&#xb9;" horiz-adv-x="598" d="M78 1081l184 160v-657h195v874h-195l-184 -160v-217z" />
<glyph unicode="&#xba;" horiz-adv-x="946" d="M113 1032q0 -121 20.5 -195.5t77.5 -134.5q45 -47 110.5 -75.5t151.5 -28.5q88 0 152.5 28.5t109.5 75.5q57 59 78 134t21 196t-21.5 197t-77.5 135q-45 47 -109.5 75.5t-152.5 28.5q-86 0 -151.5 -28.5t-110.5 -75.5q-55 -59 -76.5 -135t-21.5 -197zM328 1032 q0 78 9 128t38 79q37 37 98 37t98 -37q29 -29 38 -79t9 -128t-9 -127t-38 -78q-37 -37 -98 -36q-61 0 -98 36q-29 29 -38 78t-9 127z" />
<glyph unicode="&#xbb;" horiz-adv-x="1286" d="M137 55l510 508l-510 508v-317l195 -191l-195 -190v-318zM707 55l512 508l-512 508v-317l192 -191l-192 -190v-318z" />
<glyph unicode="&#xbc;" horiz-adv-x="1712" d="M78 1081l184 160v-657h195v874h-195l-184 -160v-217zM381 0h209l690 1458h-209zM1018 117h360v-117h185v117h67v182h-67v127h-185v-127h-151l295 575h-211l-293 -575v-182z" />
<glyph unicode="&#xbd;" horiz-adv-x="1765" d="M78 1081l184 160v-657h195v874h-195l-184 -160v-217zM373 0h207l690 1458h-207zM1120 0h557v174h-321l215 234q57 63 81.5 106t24.5 107q0 121 -77.5 191.5t-200.5 70.5q-121 0 -200 -71t-79 -194h195q0 49 24.5 70t59.5 21q41 0 64.5 -23.5t23.5 -64.5 q0 -27 -10.5 -47.5t-36.5 -49.5l-320 -350v-174z" />
<glyph unicode="&#xbe;" horiz-adv-x="1771" d="M88 846q0 -135 84 -203t205 -68q123 0 206 70t83 199q0 72 -29 118t-74 74q41 25 66.5 66t25.5 106q0 113 -78.5 185.5t-199.5 72.5q-119 0 -199 -70.5t-80 -189.5h193q0 41 24.5 63.5t61.5 22.5t61.5 -23.5t24.5 -66.5q0 -35 -22.5 -61.5t-67.5 -26.5h-27v-166h27 q45 0 72.5 -27.5t27.5 -70.5q0 -47 -25.5 -74.5t-70.5 -27.5q-41 0 -68.5 25.5t-27.5 72.5h-193zM446 0h209l691 1458h-209zM1077 117h361v-117h184v117h68v182h-68v127h-184v-127h-152l295 575h-211l-293 -575v-182z" />
<glyph unicode="&#xbf;" horiz-adv-x="1071" d="M74 6q0 -188 125 -298.5t305 -110.5q90 0 169 28.5t138 82.5t92 131t33 169h-266q0 -74 -44 -123t-122 -49q-76 0 -120 47t-44 121q0 33 16.5 67.5t42.5 69.5l152 195q43 55 60.5 102t17.5 111v61h-267v-41q0 -25 -10 -54.5t-26 -49.5l-152 -203q-49 -63 -74.5 -123.5 t-25.5 -132.5zM354 795h283v272h-283v-272z" />
<glyph unicode="&#xc0;" horiz-adv-x="1306" d="M10 0h297l88 258h518l86 -258h297l-532 1458h-223zM350 1948l234 -349h178l-131 349h-281zM475 498l184 530l179 -530h-363z" />
<glyph unicode="&#xc1;" horiz-adv-x="1306" d="M10 0h297l88 258h518l86 -258h297l-532 1458h-223zM475 498l184 530l179 -530h-363zM537 1599h178l233 349h-280z" />
<glyph unicode="&#xc2;" horiz-adv-x="1306" d="M10 0h297l88 258h518l86 -258h297l-532 1458h-223zM272 1599h207l170 187l170 -187h207l-270 347h-213zM475 498l184 530l179 -530h-363z" />
<glyph unicode="&#xc3;" horiz-adv-x="1306" d="M10 0h297l88 258h518l86 -258h297l-532 1458h-223zM279 1763l114 -116q37 37 63.5 48t57.5 11q51 0 115 -37q45 -27 79.5 -37t77.5 -10q59 0 111.5 26.5t120.5 94.5l-119 117q-37 -37 -63.5 -48.5t-57.5 -11.5q-51 0 -112 37q-43 27 -78 37t-80 10q-59 0 -110.5 -26.5 t-118.5 -94.5zM475 498l184 530l179 -530h-363z" />
<glyph unicode="&#xc4;" horiz-adv-x="1306" d="M10 0h297l88 258h518l86 -258h297l-532 1458h-223zM309 1604h228v256h-228v-256zM475 498l184 530l179 -530h-363zM762 1604h227v256h-227v-256z" />
<glyph unicode="&#xc5;" horiz-adv-x="1306" d="M10 0h297l88 258h518l86 -258h297l-532 1458h-223zM381 1810q0 -111 79 -189.5t189 -78.5q111 0 190 78.5t79 189.5q0 113 -79 191t-190 78t-189.5 -79t-78.5 -190zM475 498l184 530l179 -530h-363zM530 1810q0 49 35 84t84 35t84 -35t35 -84t-35 -84.5t-84 -35.5 t-84 35.5t-35 84.5z" />
<glyph unicode="&#xc6;" horiz-adv-x="2004" d="M6 0h305l166 319h461v-319h958v254h-675v352h577v254h-577v344h675v254h-1128zM600 559l338 645v-645h-338z" />
<glyph unicode="&#xc7;" horiz-adv-x="1269" d="M121 729q0 -240 24.5 -362.5t118.5 -219.5q160 -160 393 -159q209 0 354.5 119t182.5 342h-289q-23 -94 -83 -150.5t-163 -56.5q-117 0 -182 75q-23 25 -36 53.5t-20 71.5t-11 111t-4 176q0 109 4 176.5t11 110.5t20.5 71.5t35.5 53.5q66 76 182 76q102 0 163 -56.5 t83 -150.5h289q-37 223 -181.5 341.5t-355.5 118.5q-233 0 -393 -159q-94 -94 -118.5 -218t-24.5 -364zM438 -422h248l90 299h-196z" />
<glyph unicode="&#xc8;" horiz-adv-x="1239" d="M170 0h960v254h-675v354h575v254h-575v342h675v254h-960v-1458zM336 1948l233 -349h179l-132 349h-280z" />
<glyph unicode="&#xc9;" horiz-adv-x="1239" d="M170 0h960v254h-675v354h575v254h-575v342h675v254h-960v-1458zM520 1599h178l234 349h-281z" />
<glyph unicode="&#xca;" horiz-adv-x="1239" d="M170 0h960v254h-675v354h575v254h-575v342h675v254h-960v-1458zM258 1599h207l170 187l170 -187h207l-271 347h-213z" />
<glyph unicode="&#xcb;" horiz-adv-x="1239" d="M170 0h960v254h-675v354h575v254h-575v342h675v254h-960v-1458zM295 1604h227v256h-227v-256zM748 1604h227v256h-227v-256z" />
<glyph unicode="&#xcc;" horiz-adv-x="624" d="M106 1948h281l131 -349h-178zM170 0v1458h285v-1458h-285z" />
<glyph unicode="&#xcd;" horiz-adv-x="624" d="M170 0v1458h285v-1458h-285zM172 1599l131 349h281l-234 -349h-178z" />
<glyph unicode="&#xce;" horiz-adv-x="624" d="M-68 1599h207l170 187l170 -187h207l-270 347h-213zM170 0h285v1458h-285v-1458z" />
<glyph unicode="&#xcf;" horiz-adv-x="624" d="M-33 1604v256h228v-256h-228zM170 0v1458h285v-1458h-285zM420 1604v256h227v-256h-227z" />
<glyph unicode="&#xd0;" horiz-adv-x="1396" d="M76 629h141v-629h522q125 0 229.5 44t178.5 126q45 51 71.5 103.5t39 116t15.5 139t3 200.5q0 127 -3 202t-15.5 136t-38 114.5t-72.5 104.5q-150 172 -404 172h-526v-612h-141v-217zM502 252v377h237v217h-237v360h215q147 0 223 -106q18 -25 27.5 -50.5t14.5 -63.5 t7 -100.5t2 -160.5q0 -102 -2 -161.5t-6 -95.5t-13 -59.5t-26 -48.5q-72 -109 -227 -108h-215z" />
<glyph unicode="&#xd1;" horiz-adv-x="1456" d="M170 0h285v895l577 -895h254v1458h-285v-893l-577 893h-254v-1458zM358 1763l115 -116q37 37 63.5 48t57.5 11q51 0 115 -37q45 -27 79.5 -37t77.5 -10q59 0 111.5 26.5t120.5 94.5l-119 117q-37 -37 -63.5 -48.5t-57.5 -11.5q-51 0 -113 37q-43 27 -77.5 37t-79.5 10 q-59 0 -110.5 -26.5t-119.5 -94.5z" />
<glyph unicode="&#xd2;" horiz-adv-x="1318" d="M121 729q0 -240 24.5 -362.5t118.5 -219.5q80 -80 177.5 -119.5t217.5 -39.5q121 0 217.5 40t176.5 119q98 98 121.5 220t23.5 362q0 242 -23.5 363.5t-121.5 218.5q-80 80 -176.5 119.5t-217.5 39.5t-218 -39.5t-177 -119.5q-94 -94 -118.5 -218t-24.5 -364zM360 1948 l234 -349h178l-131 349h-281zM406 729q0 111 3 177.5t11 109.5t21.5 71.5t33.5 51.5q31 37 79 57.5t105 20.5q115 0 183 -78q23 -25 36 -53.5t21 -70.5t11 -109.5t3 -176.5q0 -106 -3 -175t-11 -111t-21.5 -70.5t-35.5 -53.5q-68 -78 -183 -77q-57 0 -105 20.5t-79 56.5 q-23 25 -35 52.5t-20 71.5t-11 109.5t-3 176.5z" />
<glyph unicode="&#xd3;" horiz-adv-x="1318" d="M121 729q0 -240 24.5 -362.5t118.5 -219.5q80 -80 177.5 -119.5t217.5 -39.5q121 0 217.5 40t176.5 119q98 98 121.5 220t23.5 362q0 242 -23.5 363.5t-121.5 218.5q-80 80 -176.5 119.5t-217.5 39.5t-218 -39.5t-177 -119.5q-94 -94 -118.5 -218t-24.5 -364zM406 729 q0 111 3 177.5t11 109.5t21.5 71.5t33.5 51.5q31 37 79 57.5t105 20.5q115 0 183 -78q23 -25 36 -53.5t21 -70.5t11 -109.5t3 -176.5q0 -106 -3 -175t-11 -111t-21.5 -70.5t-35.5 -53.5q-68 -78 -183 -77q-57 0 -105 20.5t-79 56.5q-23 25 -35 52.5t-20 71.5t-11 109.5 t-3 176.5zM547 1599h178l233 349h-280z" />
<glyph unicode="&#xd4;" horiz-adv-x="1318" d="M121 729q0 -240 24.5 -362.5t118.5 -219.5q80 -80 177.5 -119.5t217.5 -39.5q121 0 217.5 40t176.5 119q98 98 121.5 220t23.5 362q0 242 -23.5 363.5t-121.5 218.5q-80 80 -176.5 119.5t-217.5 39.5t-218 -39.5t-177 -119.5q-94 -94 -118.5 -218t-24.5 -364zM283 1599 h206l170 187l170 -187h207l-270 347h-213zM406 729q0 111 3 177.5t11 109.5t21.5 71.5t33.5 51.5q31 37 79 57.5t105 20.5q115 0 183 -78q23 -25 36 -53.5t21 -70.5t11 -109.5t3 -176.5q0 -106 -3 -175t-11 -111t-21.5 -70.5t-35.5 -53.5q-68 -78 -183 -77q-57 0 -105 20.5 t-79 56.5q-23 25 -35 52.5t-20 71.5t-11 109.5t-3 176.5z" />
<glyph unicode="&#xd5;" horiz-adv-x="1318" d="M121 729q0 -240 24.5 -362.5t118.5 -219.5q80 -80 177.5 -119.5t217.5 -39.5q121 0 217.5 40t176.5 119q98 98 121.5 220t23.5 362q0 242 -23.5 363.5t-121.5 218.5q-80 80 -176.5 119.5t-217.5 39.5t-218 -39.5t-177 -119.5q-94 -94 -118.5 -218t-24.5 -364zM289 1763 l114 -116q37 37 64 48t57 11q51 0 115 -37q45 -27 80 -37t78 -10q59 0 111 26.5t120 94.5l-119 117q-37 -37 -63.5 -48.5t-57.5 -11.5q-51 0 -112 37q-43 27 -78 37t-80 10q-59 0 -110.5 -26.5t-118.5 -94.5zM406 729q0 111 3 177.5t11 109.5t21.5 71.5t33.5 51.5 q31 37 79 57.5t105 20.5q115 0 183 -78q23 -25 36 -53.5t21 -70.5t11 -109.5t3 -176.5q0 -106 -3 -175t-11 -111t-21.5 -70.5t-35.5 -53.5q-68 -78 -183 -77q-57 0 -105 20.5t-79 56.5q-23 25 -35 52.5t-20 71.5t-11 109.5t-3 176.5z" />
<glyph unicode="&#xd6;" horiz-adv-x="1318" d="M121 729q0 -240 24.5 -362.5t118.5 -219.5q80 -80 177.5 -119.5t217.5 -39.5q121 0 217.5 40t176.5 119q98 98 121.5 220t23.5 362q0 242 -23.5 363.5t-121.5 218.5q-80 80 -176.5 119.5t-217.5 39.5t-218 -39.5t-177 -119.5q-94 -94 -118.5 -218t-24.5 -364zM319 1604 h228v256h-228v-256zM406 729q0 111 3 177.5t11 109.5t21.5 71.5t33.5 51.5q31 37 79 57.5t105 20.5q115 0 183 -78q23 -25 36 -53.5t21 -70.5t11 -109.5t3 -176.5q0 -106 -3 -175t-11 -111t-21.5 -70.5t-35.5 -53.5q-68 -78 -183 -77q-57 0 -105 20.5t-79 56.5 q-23 25 -35 52.5t-20 71.5t-11 109.5t-3 176.5zM772 1604h227v256h-227v-256z" />
<glyph unicode="&#xd7;" d="M100 297l168 -168l287 289l289 -289l168 168l-289 289l289 288l-168 168l-289 -288l-287 288l-168 -168l289 -288z" />
<glyph unicode="&#xd8;" horiz-adv-x="1335" d="M121 729q0 -240 24.5 -362.5t118.5 -219.5l10 -10l-108 -227h203l59 123q98 -45 231 -45q121 0 217.5 40t176.5 119q98 98 121.5 220t23.5 362q0 242 -23.5 363.5t-121.5 218.5l-11 10l109 227h-201l-59 -123q-98 45 -232 45q-121 0 -218 -39.5t-177 -119.5 q-94 -94 -118.5 -218t-24.5 -364zM406 729q0 111 3 177.5t11 109.5t21.5 71.5t33.5 51.5q31 37 79 57.5t105 20.5q76 0 129 -33l-364 -764q-10 43 -14 113.5t-4 195.5zM528 276l365 762q10 -45 15 -118.5t5 -190.5q0 -106 -3 -175t-11 -111t-21.5 -70.5t-35.5 -53.5 q-68 -78 -183 -77q-74 0 -131 34z" />
<glyph unicode="&#xd9;" horiz-adv-x="1368" d="M147 500q0 -115 41 -209t115 -163t172 -104.5t209 -35.5t209 35.5t172 104.5t115 163t41 209v958h-283v-948q0 -125 -68.5 -196.5t-185.5 -71.5q-115 0 -183.5 71.5t-68.5 196.5v948h-285v-958zM385 1948l233 -349h179l-131 349h-281z" />
<glyph unicode="&#xda;" horiz-adv-x="1368" d="M147 500q0 -115 41 -209t115 -163t172 -104.5t209 -35.5t209 35.5t172 104.5t115 163t41 209v958h-283v-948q0 -125 -68.5 -196.5t-185.5 -71.5q-115 0 -183.5 71.5t-68.5 196.5v948h-285v-958zM571 1599h179l233 349h-281z" />
<glyph unicode="&#xdb;" horiz-adv-x="1368" d="M147 500q0 -115 41 -209t115 -163t172 -104.5t209 -35.5t209 35.5t172 104.5t115 163t41 209v958h-283v-948q0 -125 -68.5 -196.5t-185.5 -71.5q-115 0 -183.5 71.5t-68.5 196.5v948h-285v-958zM307 1599h207l170 187l170 -187h207l-270 347h-213z" />
<glyph unicode="&#xdc;" horiz-adv-x="1368" d="M147 500q0 -115 41 -209t115 -163t172 -104.5t209 -35.5t209 35.5t172 104.5t115 163t41 209v958h-283v-948q0 -125 -68.5 -196.5t-185.5 -71.5q-115 0 -183.5 71.5t-68.5 196.5v948h-285v-958zM344 1604h227v256h-227v-256zM797 1604h227v256h-227v-256z" />
<glyph unicode="&#xdd;" horiz-adv-x="1171" d="M6 1458l438 -860v-598h283v598l438 860h-309l-268 -588l-273 588h-309zM471 1599h178l234 349h-281z" />
<glyph unicode="&#xde;" horiz-adv-x="1296" d="M170 0h285v283h280q111 0 201 35.5t152.5 98t95.5 144.5t33 176t-33 176t-96.5 144.5t-152.5 97.5t-200 35h-280v268h-285v-1458zM455 537v399h266q96 0 153.5 -54.5t57.5 -144.5t-57.5 -145t-153.5 -55h-266z" />
<glyph unicode="&#xdf;" horiz-adv-x="1175" d="M150 0h266v1047q0 96 44 144t146 48q98 0 144 -43q39 -35 38 -92q0 -61 -34.5 -92t-87.5 -31h-58v-209h58q59 0 92 -33q31 -31 30 -92v-295q0 -63 -34 -96q-33 -31 -92 -31h-54v-225h107q172 0 258 86q84 82 84 244v327q0 90 -32 140.5t-95 83.5q55 35 90 90t35 141 q0 178 -121 268t-324 90q-211 0 -335.5 -99t-124.5 -304v-1067z" />
<glyph unicode="&#xe0;" horiz-adv-x="1093" d="M74 324q0 -147 88 -240q94 -94 272 -94q90 0 148.5 23.5t113.5 78.5v-92h260v702q0 377 -454 377q-137 0 -223 -31.5t-162 -115.5l170 -166q43 49 87 68.5t118 19.5q106 0 152 -40t46 -128v-53h-252q-178 0 -271 -87t-93 -222zM236 1585l233 -348h178l-131 348h-280z M330 330q0 121 149 121h211v-58q0 -98 -39 -135q-33 -31 -69.5 -41t-98.5 -10q-76 0 -114.5 32.5t-38.5 90.5z" />
<glyph unicode="&#xe1;" horiz-adv-x="1093" d="M74 324q0 -147 88 -240q94 -94 272 -94q90 0 148.5 23.5t113.5 78.5v-92h260v702q0 377 -454 377q-137 0 -223 -31.5t-162 -115.5l170 -166q43 49 87 68.5t118 19.5q106 0 152 -40t46 -128v-53h-252q-178 0 -271 -87t-93 -222zM330 330q0 121 149 121h211v-58 q0 -98 -39 -135q-33 -31 -69.5 -41t-98.5 -10q-76 0 -114.5 32.5t-38.5 90.5zM422 1237h178l234 348h-281z" />
<glyph unicode="&#xe2;" horiz-adv-x="1093" d="M74 324q0 -147 88 -240q94 -94 272 -94q90 0 148.5 23.5t113.5 78.5v-92h260v702q0 377 -454 377q-137 0 -223 -31.5t-162 -115.5l170 -166q43 49 87 68.5t118 19.5q106 0 152 -40t46 -128v-53h-252q-178 0 -271 -87t-93 -222zM158 1237h207l170 186l170 -186h206 l-270 346h-213zM330 330q0 121 149 121h211v-58q0 -98 -39 -135q-33 -31 -69.5 -41t-98.5 -10q-76 0 -114.5 32.5t-38.5 90.5z" />
<glyph unicode="&#xe3;" horiz-adv-x="1093" d="M74 324q0 -147 88 -240q94 -94 272 -94q90 0 148.5 23.5t113.5 78.5v-92h260v702q0 377 -454 377q-137 0 -223 -31.5t-162 -115.5l170 -166q43 49 87 68.5t118 19.5q106 0 152 -40t46 -128v-53h-252q-178 0 -271 -87t-93 -222zM164 1401l115 -117q37 37 63.5 48t56.5 11 q51 0 115 -36q45 -27 80 -37t78 -10q59 0 111 26t120 94l-119 117q-37 -37 -63.5 -48t-56.5 -11q-51 0 -113 37q-43 27 -78 37t-80 10q-59 0 -110.5 -27t-118.5 -94zM330 330q0 121 149 121h211v-58q0 -98 -39 -135q-33 -31 -69.5 -41t-98.5 -10q-76 0 -114.5 32.5 t-38.5 90.5z" />
<glyph unicode="&#xe4;" horiz-adv-x="1093" d="M74 324q0 -147 88 -240q94 -94 272 -94q90 0 148.5 23.5t113.5 78.5v-92h260v702q0 377 -454 377q-137 0 -223 -31.5t-162 -115.5l170 -166q43 49 87 68.5t118 19.5q106 0 152 -40t46 -128v-53h-252q-178 0 -271 -87t-93 -222zM195 1241h227v256h-227v-256zM330 330 q0 121 149 121h211v-58q0 -98 -39 -135q-33 -31 -69.5 -41t-98.5 -10q-76 0 -114.5 32.5t-38.5 90.5zM647 1241h227v256h-227v-256z" />
<glyph unicode="&#xe5;" horiz-adv-x="1093" d="M74 324q0 -147 88 -240q94 -94 272 -94q90 0 148.5 23.5t113.5 78.5v-92h260v702q0 377 -454 377q-137 0 -223 -31.5t-162 -115.5l170 -166q43 49 87 68.5t118 19.5q106 0 152 -40t46 -128v-53h-252q-178 0 -271 -87t-93 -222zM266 1464q0 -111 79 -189.5t190 -78.5 t189.5 78.5t78.5 189.5q0 113 -79 191t-189 78q-111 0 -190 -79t-79 -190zM330 330q0 121 149 121h211v-58q0 -98 -39 -135q-33 -31 -69.5 -41t-98.5 -10q-76 0 -114.5 32.5t-38.5 90.5zM416 1464q0 49 34.5 84t84.5 35q49 0 83.5 -35t34.5 -84t-34.5 -85t-83.5 -36t-84 36 t-35 85z" />
<glyph unicode="&#xe6;" horiz-adv-x="1716" d="M74 324q0 -147 88 -240q96 -96 272 -96q123 0 208 29.5t167 119.5q68 -78 164 -113.5t211 -35.5q137 0 227 40t178 128l-162 157q-53 -53 -105 -76.5t-136 -23.5q-109 0 -171.5 65.5t-62.5 172.5h668v118q0 225 -124 367.5t-341 142.5q-188 0 -303 -116 q-106 117 -350 116q-137 0 -223 -31.5t-162 -115.5l170 -166q43 49 87 68.5t118 19.5q106 0 152 -40t46 -128v-53h-252q-178 0 -271 -87t-93 -222zM330 330q0 121 149 121h211v-58q0 -98 -39 -135q-33 -31 -69.5 -41t-98.5 -10q-76 0 -114.5 32.5t-38.5 90.5zM952 633 q2 35 7.5 60.5t17.5 54.5q23 51 69 80.5t109 29.5q66 0 111 -29.5t67 -80.5q12 -29 17.5 -54.5t7.5 -60.5h-406z" />
<glyph unicode="&#xe7;" horiz-adv-x="987" d="M96 535q0 -154 42 -261.5t111.5 -170t152.5 -89t171 -26.5q214 0 353 145l-181 178q-43 -45 -81.5 -64.5t-90.5 -19.5q-94 0 -151 70q-59 74 -60 238q0 162 60 235q57 70 151 70q51 0 90 -19.5t82 -64.5l181 180q-70 74 -156 108.5t-197 34.5q-88 0 -171 -26.5 t-152.5 -88t-111.5 -169t-42 -260.5zM328 -422h247l91 299h-197z" />
<glyph unicode="&#xe8;" horiz-adv-x="1122" d="M96 535q0 -156 40 -263.5t108.5 -169t155.5 -88t190 -26.5q137 0 227 40t178 128l-161 157q-53 -53 -105.5 -76.5t-136.5 -23.5q-109 0 -171.5 65.5t-62.5 172.5h668v118q0 225 -124 367.5t-341 142.5q-211 0 -338 -143t-127 -401zM268 1585l234 -348h178l-131 348h-281z M358 633q2 35 7.5 60.5t17.5 54.5q23 51 69 80.5t109 29.5q66 0 111 -29.5t67 -80.5q12 -29 17.5 -54.5t7.5 -60.5h-406z" />
<glyph unicode="&#xe9;" horiz-adv-x="1122" d="M96 535q0 -156 40 -263.5t108.5 -169t155.5 -88t190 -26.5q137 0 227 40t178 128l-161 157q-53 -53 -105.5 -76.5t-136.5 -23.5q-109 0 -171.5 65.5t-62.5 172.5h668v118q0 225 -124 367.5t-341 142.5q-211 0 -338 -143t-127 -401zM358 633q2 35 7.5 60.5t17.5 54.5 q23 51 69 80.5t109 29.5q66 0 111 -29.5t67 -80.5q12 -29 17.5 -54.5t7.5 -60.5h-406zM455 1237h178l233 348h-280z" />
<glyph unicode="&#xea;" horiz-adv-x="1122" d="M96 535q0 -156 40 -263.5t108.5 -169t155.5 -88t190 -26.5q137 0 227 40t178 128l-161 157q-53 -53 -105.5 -76.5t-136.5 -23.5q-109 0 -171.5 65.5t-62.5 172.5h668v118q0 225 -124 367.5t-341 142.5q-211 0 -338 -143t-127 -401zM190 1237h207l170 186l170 -186h207 l-270 346h-213zM358 633q2 35 7.5 60.5t17.5 54.5q23 51 69 80.5t109 29.5q66 0 111 -29.5t67 -80.5q12 -29 17.5 -54.5t7.5 -60.5h-406z" />
<glyph unicode="&#xeb;" horiz-adv-x="1122" d="M96 535q0 -156 40 -263.5t108.5 -169t155.5 -88t190 -26.5q137 0 227 40t178 128l-161 157q-53 -53 -105.5 -76.5t-136.5 -23.5q-109 0 -171.5 65.5t-62.5 172.5h668v118q0 225 -124 367.5t-341 142.5q-211 0 -338 -143t-127 -401zM227 1241h228v256h-228v-256zM358 633 q2 35 7.5 60.5t17.5 54.5q23 51 69 80.5t109 29.5q66 0 111 -29.5t67 -80.5q12 -29 17.5 -54.5t7.5 -60.5h-406zM680 1241h227v256h-227v-256z" />
<glyph unicode="&#xec;" horiz-adv-x="563" d="M-2 1585h281l131 -348h-179zM150 0v1067h266v-1067h-266z" />
<glyph unicode="&#xed;" horiz-adv-x="563" d="M150 0v1067h266v-1067h-266zM150 1237l131 348h280l-233 -348h-178z" />
<glyph unicode="&#xee;" horiz-adv-x="563" d="M-96 1237l270 346h213l270 -346h-206l-170 186l-170 -186h-207zM150 0v1067h266v-1067h-266z" />
<glyph unicode="&#xef;" horiz-adv-x="563" d="M-55 1241v256h227v-256h-227zM150 0v1067h266v-1067h-266zM397 1241v256h228v-256h-228z" />
<glyph unicode="&#xf0;" d="M115 520q0 -150 25.5 -243t92.5 -162q55 -57 135.5 -92t186.5 -35t186 34.5t136 92.5q68 70 93 162.5t25 242.5q0 78 -6 136.5t-19.5 110.5t-38 108.5t-63.5 132.5l-82 157h95v187h-189l-63 123h-285l64 -123h-140v-187h234l69 -127q-2 0 -18 2h-18q-59 0 -119 -16 q-117 -31 -183 -100q-68 -70 -93 -163t-25 -241zM381 520q0 92 11 150.5t46 95.5q45 45 117 45q74 0 119 -45q35 -37 45 -94.5t10 -151.5t-10 -152.5t-45 -95.5q-45 -45 -119 -45q-72 0 -117 45q-35 37 -46 95.5t-11 152.5z" />
<glyph unicode="&#xf1;" horiz-adv-x="1173" d="M150 0h266v645q0 100 52 147.5t126 47.5q72 0 124 -47.5t52 -147.5v-645h266v682q0 94 -23.5 168t-84.5 135q-94 94 -252 94q-76 0 -145.5 -28.5t-120.5 -81.5v98h-260v-1067zM223 1401l115 -117q37 37 63.5 48t57.5 11q51 0 114 -36q45 -27 80 -37t78 -10q59 0 111.5 26 t120.5 94l-119 117q-37 -37 -63.5 -48t-57.5 -11q-51 0 -113 37q-43 27 -77.5 37t-79.5 10q-59 0 -110.5 -27t-119.5 -94z" />
<glyph unicode="&#xf2;" d="M104 535q0 -154 26 -249.5t95 -166.5q55 -57 137 -94t193 -37t193.5 36.5t138.5 94.5q70 72 95.5 167t25.5 249q0 152 -26 247t-95 166q-55 57 -138 94t-194 37t-192.5 -35.5t-137.5 -95.5q-70 -72 -95.5 -167t-25.5 -246zM250 1585l233 -348h179l-132 348h-280zM371 535 q0 98 12 159.5t49 98.5q47 47 123 47q78 0 125 -47q39 -37 50 -98.5t11 -159.5t-11 -160t-50 -101q-47 -47 -125 -47q-76 0 -123 47q-37 39 -49 100.5t-12 160.5z" />
<glyph unicode="&#xf3;" d="M104 535q0 -154 26 -249.5t95 -166.5q55 -57 137 -94t193 -37t193.5 36.5t138.5 94.5q70 72 95.5 167t25.5 249q0 152 -26 247t-95 166q-55 57 -138 94t-194 37t-192.5 -35.5t-137.5 -95.5q-70 -72 -95.5 -167t-25.5 -246zM371 535q0 98 12 159.5t49 98.5q47 47 123 47 q78 0 125 -47q39 -37 50 -98.5t11 -159.5t-11 -160t-50 -101q-47 -47 -125 -47q-76 0 -123 47q-37 39 -49 100.5t-12 160.5zM444 1237h179l233 348h-281z" />
<glyph unicode="&#xf4;" d="M104 535q0 -154 26 -249.5t95 -166.5q55 -57 137 -94t193 -37t193.5 36.5t138.5 94.5q70 72 95.5 167t25.5 249q0 152 -26 247t-95 166q-55 57 -138 94t-194 37t-192.5 -35.5t-137.5 -95.5q-70 -72 -95.5 -167t-25.5 -246zM180 1237h207l170 186l170 -186h207l-270 346 h-213zM371 535q0 98 12 159.5t49 98.5q47 47 123 47q78 0 125 -47q39 -37 50 -98.5t11 -159.5t-11 -160t-50 -101q-47 -47 -125 -47q-76 0 -123 47q-37 39 -49 100.5t-12 160.5z" />
<glyph unicode="&#xf5;" d="M104 535q0 -154 26 -249.5t95 -166.5q55 -57 137 -94t193 -37t193.5 36.5t138.5 94.5q70 72 95.5 167t25.5 249q0 152 -26 247t-95 166q-55 57 -138 94t-194 37t-192.5 -35.5t-137.5 -95.5q-70 -72 -95.5 -167t-25.5 -246zM186 1401l115 -117q37 37 63.5 48t57.5 11 q51 0 115 -36q45 -27 79.5 -37t77.5 -10q59 0 111.5 26t120.5 94l-119 117q-37 -37 -63.5 -48t-57.5 -11q-51 0 -113 37q-43 27 -77.5 37t-79.5 10q-59 0 -110.5 -27t-119.5 -94zM371 535q0 98 12 159.5t49 98.5q47 47 123 47q78 0 125 -47q39 -37 50 -98.5t11 -159.5 t-11 -160t-50 -101q-47 -47 -125 -47q-76 0 -123 47q-37 39 -49 100.5t-12 160.5z" />
<glyph unicode="&#xf6;" d="M104 535q0 -154 26 -249.5t95 -166.5q55 -57 137 -94t193 -37t193.5 36.5t138.5 94.5q70 72 95.5 167t25.5 249q0 152 -26 247t-95 166q-55 57 -138 94t-194 37t-192.5 -35.5t-137.5 -95.5q-70 -72 -95.5 -167t-25.5 -246zM217 1241h227v256h-227v-256zM371 535 q0 98 12 159.5t49 98.5q47 47 123 47q78 0 125 -47q39 -37 50 -98.5t11 -159.5t-11 -160t-50 -101q-47 -47 -125 -47q-76 0 -123 47q-37 39 -49 100.5t-12 160.5zM670 1241h227v256h-227v-256z" />
<glyph unicode="&#xf7;" d="M94 461h924v248h-924v-248zM424 37h266v266h-266v-266zM424 866h266v267h-266v-267z" />
<glyph unicode="&#xf8;" d="M104 535q0 -156 26 -251.5t95 -164.5l2 -2l-121 -207h162l74 125q94 -47 213 -47q111 0 193.5 36.5t138.5 94.5q70 72 95.5 167t25.5 249q0 152 -26 247t-95 166l-4 2l123 207h-164l-72 -123q-90 45 -215 45q-111 0 -192.5 -35.5t-137.5 -95.5q-70 -72 -95.5 -167 t-25.5 -246zM371 535q0 98 12 159.5t49 98.5q47 47 123 47q57 0 100 -27l-270 -455q-14 57 -14 177zM457 254l268 455q16 -65 16 -174q0 -98 -11 -160t-50 -101q-47 -47 -125 -47q-55 0 -98 27z" />
<glyph unicode="&#xf9;" horiz-adv-x="1173" d="M137 385q0 -94 23.5 -168t85.5 -135q94 -94 252 -94q76 0 145.5 28.5t120.5 81.5v-98h260v1067h-266v-645q0 -100 -52.5 -147.5t-125.5 -47.5q-72 0 -124.5 47.5t-52.5 147.5v645h-266v-682zM281 1585l233 -348h178l-131 348h-280z" />
<glyph unicode="&#xfa;" horiz-adv-x="1173" d="M137 385q0 -94 23.5 -168t85.5 -135q94 -94 252 -94q76 0 145.5 28.5t120.5 81.5v-98h260v1067h-266v-645q0 -100 -52.5 -147.5t-125.5 -47.5q-72 0 -124.5 47.5t-52.5 147.5v645h-266v-682zM467 1237h178l234 348h-281z" />
<glyph unicode="&#xfb;" horiz-adv-x="1173" d="M137 385q0 -94 23.5 -168t85.5 -135q94 -94 252 -94q76 0 145.5 28.5t120.5 81.5v-98h260v1067h-266v-645q0 -100 -52.5 -147.5t-125.5 -47.5q-72 0 -124.5 47.5t-52.5 147.5v645h-266v-682zM203 1237h207l170 186l170 -186h206l-270 346h-213z" />
<glyph unicode="&#xfc;" horiz-adv-x="1173" d="M137 385q0 -94 23.5 -168t85.5 -135q94 -94 252 -94q76 0 145.5 28.5t120.5 81.5v-98h260v1067h-266v-645q0 -100 -52.5 -147.5t-125.5 -47.5q-72 0 -124.5 47.5t-52.5 147.5v645h-266v-682zM240 1241h227v256h-227v-256zM692 1241h228v256h-228v-256z" />
<glyph unicode="&#xfd;" horiz-adv-x="1011" d="M8 1067l365 -991l-45 -131q-20 -57 -48 -77t-85 -20h-62v-239h105q70 0 128 18.5t101 63.5q45 45 80 137l457 1239h-281l-213 -659l-221 659h-281zM387 1237h178l234 348h-281z" />
<glyph unicode="&#xfe;" horiz-adv-x="1150" d="M150 -391h266v485q51 -57 113.5 -81.5t144.5 -24.5q78 0 146.5 25.5t113.5 70.5q72 72 94 205q10 53 12 110.5t2 135.5q0 164 -18 271t-90 177q-45 45 -113.5 70.5t-146.5 25.5q-82 0 -144.5 -24.5t-113.5 -81.5v485h-266v-1849zM416 535q0 74 6 127t24.5 93t55.5 62.5 t94 22.5t94 -22.5t55.5 -62.5t24.5 -93t6 -127t-6 -127.5t-24.5 -94.5t-55.5 -63.5t-94 -22.5t-94 22.5t-55.5 63.5t-24.5 94.5t-6 127.5z" />
<glyph unicode="&#xff;" horiz-adv-x="1011" d="M8 1067l365 -991l-45 -131q-20 -57 -48 -77t-85 -20h-62v-239h105q70 0 128 18.5t101 63.5q45 45 80 137l457 1239h-281l-213 -659l-221 659h-281zM160 1241h227v256h-227v-256zM612 1241h228v256h-228v-256z" />
<glyph unicode="&#x152;" horiz-adv-x="1978" d="M121 729q0 -242 23.5 -366.5t119.5 -221.5q78 -78 171 -115.5t216 -37.5q72 0 142.5 25.5t119.5 76.5v-90h955v252h-672v358h571v250h-571v346h670v252h-953v-90q-49 53 -118.5 77.5t-143.5 24.5q-123 0 -216 -37.5t-171 -115.5q-96 -96 -119.5 -222t-23.5 -366zM406 729 q0 111 3 177.5t11 109.5t21.5 71.5t33.5 51.5q31 37 79 57.5t105 20.5q115 0 183 -78q23 -25 36 -53.5t21 -70.5t11 -109.5t3 -176.5q0 -106 -3 -175t-11 -111t-21.5 -70.5t-35.5 -53.5q-68 -78 -183 -77q-57 0 -105 20.5t-79 56.5q-23 25 -35 52.5t-20 71.5t-11 109.5 t-3 176.5z" />
<glyph unicode="&#x153;" horiz-adv-x="1767" d="M104 535q0 -154 26 -249.5t95 -166.5q55 -57 137 -94t193 -37q106 0 189 35.5t135 99.5q63 -70 155 -102.5t201 -32.5q137 0 227 40t178 128l-163 157q-55 -55 -105.5 -77.5t-134.5 -22.5q-109 0 -171 65.5t-62 172.5h667v118q0 225 -124 367.5t-341 142.5 q-205 0 -321 -141q-51 63 -136 102t-194 39q-111 0 -192.5 -35.5t-137.5 -95.5q-70 -72 -95.5 -167t-25.5 -246zM371 535q0 98 12 159.5t49 98.5q47 47 123 47q78 0 125 -47q39 -37 50 -98.5t11 -159.5t-11 -160t-50 -101q-47 -47 -125 -47q-76 0 -123 47q-37 39 -49 100.5 t-12 160.5zM1004 633q2 37 6 61.5t16 53.5q23 51 70 80.5t110 29.5q66 0 111 -29.5t67 -80.5q12 -29 16.5 -53.5t6.5 -61.5h-403z" />
<glyph unicode="&#x178;" horiz-adv-x="1171" d="M6 1458l438 -860v-598h283v598l438 860h-309l-268 -588l-273 588h-309zM244 1604h227v256h-227v-256zM696 1604h228v256h-228v-256z" />
<glyph unicode="&#x2c6;" horiz-adv-x="1024" d="M135 1237h207l170 186l170 -186h207l-271 346h-212z" />
<glyph unicode="&#x2dc;" horiz-adv-x="1024" d="M141 1401l115 -117q37 37 63.5 48t57.5 11q51 0 115 -36q45 -27 79.5 -37t77.5 -10q59 0 111.5 26t120.5 94l-119 117q-37 -37 -63.5 -48t-57.5 -11q-51 0 -113 37q-43 27 -77.5 37t-79.5 10q-59 0 -110.5 -27t-119.5 -94z" />
<glyph unicode="&#x2000;" horiz-adv-x="1039" />
<glyph unicode="&#x2001;" horiz-adv-x="2079" />
<glyph unicode="&#x2002;" horiz-adv-x="1039" />
<glyph unicode="&#x2003;" horiz-adv-x="2079" />
<glyph unicode="&#x2004;" horiz-adv-x="693" />
<glyph unicode="&#x2005;" horiz-adv-x="519" />
<glyph unicode="&#x2006;" horiz-adv-x="346" />
<glyph unicode="&#x2007;" horiz-adv-x="346" />
<glyph unicode="&#x2008;" horiz-adv-x="259" />
<glyph unicode="&#x2009;" horiz-adv-x="415" />
<glyph unicode="&#x200a;" horiz-adv-x="115" />
<glyph unicode="&#x2010;" horiz-adv-x="872" d="M121 461h631v248h-631v-248z" />
<glyph unicode="&#x2011;" horiz-adv-x="872" d="M121 461h631v248h-631v-248z" />
<glyph unicode="&#x2012;" horiz-adv-x="872" d="M121 461h631v248h-631v-248z" />
<glyph unicode="&#x2013;" d="M102 461h908v248h-908v-248z" />
<glyph unicode="&#x2014;" horiz-adv-x="2103" d="M121 463h1861v256h-1861v-256z" />
<glyph unicode="&#x2018;" horiz-adv-x="559" d="M139 1206h279v467l-279 -215v-252z" />
<glyph unicode="&#x2019;" horiz-adv-x="559" d="M139 993l279 211v254h-279v-465z" />
<glyph unicode="&#x201a;" horiz-adv-x="555" d="M139 -213l279 213v254h-279v-467z" />
<glyph unicode="&#x201c;" horiz-adv-x="987" d="M139 1206h277v467l-277 -215v-252zM569 1206h279v467l-279 -215v-252z" />
<glyph unicode="&#x201d;" horiz-adv-x="987" d="M139 993l277 211v254h-277v-465zM569 993l279 211v254h-279v-465z" />
<glyph unicode="&#x201e;" horiz-adv-x="993" d="M139 -213l277 213v254h-277v-467zM569 -213l279 213v254h-279v-467z" />
<glyph unicode="&#x2022;" horiz-adv-x="1009" d="M170 684q0 -68 25.5 -129t71.5 -107.5t107.5 -72t129.5 -25.5t129 25.5t107 72t72 107.5t26 129t-26 129t-72 107.5t-107.5 72t-128.5 25.5q-68 0 -129.5 -25.5t-107.5 -72t-71.5 -107.5t-25.5 -129z" />
<glyph unicode="&#x2026;" horiz-adv-x="1732" d="M139 0h291v289h-291v-289zM721 0h289v289h-289v-289zM1305 0h288v289h-288v-289z" />
<glyph unicode="&#x202f;" horiz-adv-x="415" />
<glyph unicode="&#x2039;" horiz-adv-x="716" d="M70 563l510 -508v318l-193 190l193 191v317z" />
<glyph unicode="&#x203a;" horiz-adv-x="716" d="M137 55l510 508l-510 508v-317l195 -191l-195 -190v-318z" />
<glyph unicode="&#x205f;" horiz-adv-x="519" />
<glyph unicode="&#x20ac;" horiz-adv-x="1400" d="M80 485v170h141v154h-141v170h149q10 102 39 182t99 150q78 78 175 118.5t218 40.5q205 0 350 -115.5t184 -344.5h-288q-23 88 -81.5 147.5t-164.5 59.5q-59 0 -104.5 -20.5t-75.5 -55.5q-27 -29 -40.5 -65t-19.5 -97h303v-170h-315v-154h315v-170h-305 q6 -66 20.5 -102.5t41.5 -65.5q31 -35 75.5 -55t104.5 -20q106 0 165.5 59t82.5 148h286q-18 -115 -66 -201t-119 -144.5t-160 -87t-189 -28.5q-121 0 -218.5 41t-174.5 118q-72 72 -99.5 153t-38.5 185h-149z" />
<glyph unicode="&#x2122;" horiz-adv-x="1892" d="M92 1284h225v-700h195v700h225v174h-645v-174zM872 584h195v516l164 -322h172l164 322v-516h194v874h-194l-250 -467l-250 467h-195v-874z" />
<glyph unicode="&#xe000;" horiz-adv-x="1064" d="M0 0v1065h1065v-1065h-1065z" />
</font>
</defs>
</svg>
